<svg xmlns="http://www.w3.org/2000/svg" viewBox="0 0 800 500" role="img" aria-labelledby="title desc">
  <title id="title">Constrained reinforcement learning controller visual abstract</title><desc id="desc">Model-based weight initialization and a constrained reinforcement learning controller create a closed feedback loop for nonlinear systems.</desc>
  <defs><marker id="a" viewBox="0 0 10 10" refX="8" refY="5" markerWidth="7" markerHeight="7" orient="auto"><path d="M0 0L10 5L0 10Z" fill="#5268C2"/></marker><marker id="b" viewBox="0 0 10 10" refX="8" refY="5" markerWidth="7" markerHeight="7" orient="auto"><path d="M0 0L10 5L0 10Z" fill="#C96862"/></marker></defs><rect width="800" height="500" rx="10" fill="#F8FAFC"/><text x="58" y="54" fill="#7B8790" font-family="monospace" font-size="18">VISUAL ABSTRACT 06</text>
  <rect x="58" y="169" width="158" height="150" rx="21" fill="#E3E8EB" stroke="#7B8790" stroke-width="3"/><rect x="320" y="133" width="183" height="222" rx="21" fill="#DDE2F5" stroke="#5268C2" stroke-width="3"/><rect x="604" y="169" width="140" height="150" rx="21" fill="#D5ECE9" stroke="#318C87" stroke-width="3"/><text x="137" y="216" text-anchor="middle" fill="#37424B" font-family="sans-serif" font-size="18" font-weight="700">MODEL-BASED</text><text x="137" y="244" text-anchor="middle" fill="#37424B" font-family="sans-serif" font-size="18" font-weight="700">INITIALIZATION</text><text x="137" y="281" text-anchor="middle" fill="#7B8790" font-family="monospace" font-size="14">W₀ / V₀</text>
  <text x="412" y="180" text-anchor="middle" fill="#37424B" font-family="sans-serif" font-size="19" font-weight="700">RL</text><text x="412" y="204" text-anchor="middle" fill="#37424B" font-family="sans-serif" font-size="19" font-weight="700">CONTROLLER</text><text x="412" y="238" text-anchor="middle" fill="#5268C2" font-family="monospace" font-size="14">CONSTRAINED ACTION</text><path d="M357 294 Q412 240 466 294" fill="none" stroke="#7665B3" stroke-width="6"/><circle cx="357" cy="294" r="9" fill="#C96862"/><circle cx="466" cy="294" r="9" fill="#4D9B73"/>
  <text x="674" y="222" text-anchor="middle" fill="#37424B" font-family="sans-serif" font-size="20" font-weight="700">NONLINEAR</text><text x="674" y="252" text-anchor="middle" fill="#37424B" font-family="sans-serif" font-size="20" font-weight="700">SYSTEM</text><text x="674" y="286" text-anchor="middle" fill="#318C87" font-family="monospace" font-size="14">x(t+1)</text>
  <path d="M216 244H319" stroke="#5268C2" stroke-width="5" marker-end="url(#a)"/><path d="M503 244H603" stroke="#5268C2" stroke-width="5" marker-end="url(#a)"/><path d="M674 319V410H412V356" fill="none" stroke="#C96862" stroke-width="4" marker-end="url(#b)"/><text x="493" y="436" fill="#C96862" font-family="monospace" font-size="14">STATE FEEDBACK</text>
</svg>
