<svg xmlns="http://www.w3.org/2000/svg" viewBox="0 0 800 500" role="img" aria-labelledby="title desc">
  <title id="title">SPTO visual abstract</title><desc id="desc">Probabilistic forecasting is connected to a differentiable optimality-gap surrogate and a stochastic water-energy scheduler.</desc>
  <defs><marker id="a" viewBox="0 0 10 10" refX="8" refY="5" markerWidth="7" markerHeight="7" orient="auto"><path d="M0 0L10 5L0 10Z" fill="#5268C2"/></marker></defs>
  <rect width="800" height="500" rx="10" fill="#F8FAFC"/><path d="M0 410 C130 330 230 470 360 380S610 260 800 350V500H0Z" fill="#F5F7F8"/>
  <g stroke="#E3E8EB" opacity=".8"><path d="M70 72V422M150 72V422M230 72V422M310 72V422M390 72V422M470 72V422M550 72V422M630 72V422M710 72V422"/><path d="M54 120H746M54 200H746M54 280H746M54 360H746"/></g>
  <text x="58" y="54" fill="#7B8790" font-family="monospace" font-size="18">VISUAL ABSTRACT 01</text>
  <path d="M70 272 C120 148 175 344 232 218 S330 160 378 244" fill="none" stroke="#DDE2F5" stroke-width="14"/><path d="M70 260 C122 176 176 315 232 226 S326 182 378 236" fill="none" stroke="#5268C2" stroke-width="5"/>
  <rect x="402" y="146" width="132" height="170" rx="18" fill="#DDE2F5" stroke="#5268C2" stroke-width="3"/><rect x="574" y="120" width="160" height="220" rx="18" fill="#DDEFE5" stroke="#4D9B73" stroke-width="3"/>
  <text x="468" y="190" text-anchor="middle" fill="#37424B" font-family="sans-serif" font-size="22" font-weight="700">SPTO</text><text x="468" y="220" text-anchor="middle" fill="#5268C2" font-family="monospace" font-size="15">DIFF. GAP</text><text x="468" y="244" text-anchor="middle" fill="#5268C2" font-family="monospace" font-size="15">SURROGATE</text>
  <path d="M381 232H401" stroke="#5268C2" stroke-width="5" marker-end="url(#a)"/><path d="M534 232H573" stroke="#5268C2" stroke-width="5" marker-end="url(#a)"/>
  <g fill="#4D9B73"><rect x="600" y="251" width="14" height="54"/><rect x="623" y="221" width="14" height="84"/><rect x="646" y="264" width="14" height="41"/><rect x="669" y="203" width="14" height="102"/><rect x="692" y="231" width="14" height="74"/></g>
  <text x="654" y="151" text-anchor="middle" fill="#37424B" font-family="sans-serif" font-size="16" font-weight="700">STOCHASTIC</text><text x="654" y="173" text-anchor="middle" fill="#37424B" font-family="sans-serif" font-size="16" font-weight="700">SCHEDULE</text><text x="70" y="402" fill="#5268C2" font-family="monospace" font-size="16">FORECAST DISTRIBUTION</text><text x="654" y="384" text-anchor="middle" fill="#C8892F" font-family="monospace" font-size="16">COST + REGRET</text>
</svg>
